<?xml version="1.0" standalone="no"?>
<!DOCTYPE svg PUBLIC "-//W3C//DTD SVG 20010904//EN"
 "http://www.w3.org/TR/2001/REC-SVG-20010904/DTD/svg10.dtd">
<svg version="1.0" xmlns="http://www.w3.org/2000/svg"
 width="178.000000pt" height="180.000000pt" viewBox="0 0 178.000000 180.000000"
 preserveAspectRatio="xMidYMid meet">

<g transform="translate(0.000000,180.000000) scale(0.100000,-0.100000)"
fill="#000000" stroke="none">
<path d="M683 1725 c-161 -43 -278 -110 -392 -226 -100 -101 -170 -222 -212
-364 -20 -69 -24 -102 -24 -230 0 -130 3 -160 24 -225 77 -242 237 -430 452
-528 141 -66 195 -77 359 -77 131 0 154 3 235 29 50 15 108 37 130 48 379 192
560 622 429 1022 -45 139 -99 224 -219 341 -160 158 -353 235 -585 234 -79 0
-128 -6 -197 -24z m182 -47 c1 -13 3 -29 4 -35 0 -7 14 -13 30 -13 20 0 28 5
28 18 0 41 4 52 18 52 11 0 15 -12 15 -49 l0 -49 -60 -1 -60 -1 0 49 c0 62 19
85 25 29z m-64 1 c11 -11 19 -30 17 -42 -4 -28 -47 -52 -81 -44 -48 13 -48 78
1 96 38 14 40 13 63 -10z m267 6 c19 -7 14 -25 -7 -25 -15 0 -21 -8 -23 -32
-2 -23 -9 -34 -22 -36 -17 -4 -18 0 -12 37 5 33 3 41 -9 41 -8 0 -15 7 -15 15
0 13 8 15 38 10 20 -4 43 -8 50 -10z m-384 -39 c9 -14 6 -21 -14 -38 -14 -11
-24 -27 -22 -34 4 -21 -26 -17 -38 5 -19 37 -12 69 18 79 33 13 43 11 56 -12z
m472 8 c35 -9 30 -28 -6 -20 -36 7 -39 -1 -5 -14 37 -14 32 -33 -7 -26 l-33 5
28 -11 c15 -7 26 -17 24 -22 -4 -12 -25 -10 -63 4 -23 9 -23 9 -6 55 11 30 21
44 30 40 8 -3 25 -8 38 -11z m108 -47 c10 -7 17 -22 15 -32 -4 -17 -5 -18 -21
-2 -25 25 -50 22 -46 -5 2 -15 10 -23 22 -23 11 0 21 -6 23 -12 7 -19 -47 -16
-69 4 -22 20 -23 32 -2 61 17 25 51 29 78 9z m-724 -50 c14 -27 14 -29 -13
-53 -34 -29 -58 -31 -82 -4 -22 24 -14 63 17 78 35 17 61 10 78 -21z m800 -2
c7 -8 10 -26 8 -40 -6 -27 6 -34 16 -10 5 15 36 21 36 8 0 -5 -13 -23 -28 -41
-20 -24 -32 -31 -46 -26 -14 6 -17 14 -13 42 6 32 5 33 -12 18 -33 -30 -42
-16 -15 24 29 44 36 47 54 25z m-318 -26 c29 -6 94 -30 143 -54 376 -180 471
-679 188 -985 -55 -60 -142 -130 -159 -130 -3 0 -18 -8 -32 -18 -89 -61 -331
-78 -471 -33 -141 45 -281 163 -358 299 -49 88 -73 186 -73 306 0 184 55 313
189 446 125 124 255 179 423 180 53 0 121 -5 150 -11z m-612 -13 c0 -8 -7 -16
-15 -20 -8 -3 -15 -11 -15 -17 0 -8 7 -6 18 4 23 21 32 21 32 2 0 -9 -7 -18
-15 -21 -8 -4 -15 -11 -15 -17 0 -5 8 -3 18 6 20 18 42 22 42 9 0 -5 -13 -21
-29 -36 l-29 -28 -31 33 c-17 19 -31 38 -31 43 0 10 51 56 63 56 4 0 7 -6 7
-14z m1026 -37 c3 -6 -9 -26 -27 -45 -43 -45 -62 -29 -23 20 31 38 39 42 50
25z m-1096 -50 c0 -6 -9 -13 -20 -16 -24 -6 -27 -38 -5 -47 10 -4 20 3 27 19
11 25 28 29 35 9 6 -17 -37 -64 -57 -64 -44 0 -65 57 -33 92 18 20 53 25 53 7z
m1150 -11 c21 -23 26 -53 10 -63 -9 -5 -14 7 -12 27 1 3 -5 12 -14 19 -12 10
-18 9 -32 -5 -16 -16 -15 -18 11 -38 20 -15 25 -23 16 -28 -31 -20 -76 40 -56
75 22 41 47 45 77 13z m-1205 -90 c36 -24 42 -33 25 -43 -13 -8 -92 43 -85 55
9 15 22 12 60 -12z m1272 -10 c30 -28 30 -63 -2 -84 -23 -15 -27 -15 -50 0
-33 22 -42 61 -20 86 23 26 43 25 72 -2z m-1264 -44 c5 -5 -16 -58 -29 -73 -4
-5 -84 42 -84 50 0 17 21 19 42 5 29 -21 35 -20 43 4 6 20 16 25 28 14z m1337
-428 c6 -8 10 -25 8 -38 -2 -18 -10 -24 -35 -26 -39 -4 -44 -27 -8 -36 14 -4
25 -11 25 -17 0 -7 -10 -9 -27 -5 -17 5 -29 3 -34 -6 -6 -8 -9 -2 -9 19 0 17
5 35 10 38 6 3 7 17 4 31 -11 44 38 73 66 40z m-1424 -31 c16 -24 12 -45 -8
-45 -5 0 -7 7 -4 15 7 19 -21 32 -36 17 -8 -8 -8 -15 2 -27 8 -10 9 -15 2 -15
-6 0 -16 9 -22 21 -9 16 -8 25 6 40 23 26 40 24 60 -6z m18 -86 c12 -11 -43
-71 -56 -63 -5 3 -5 11 1 18 8 9 6 18 -4 32 -8 10 -15 22 -15 26 0 9 62 -2 74
-13z m1355 -40 c41 -14 40 -37 -1 -42 -30 -4 -31 -5 -10 -12 12 -4 22 -11 22
-16 0 -12 -13 -11 -44 1 -35 13 -34 40 2 40 24 1 25 2 10 14 -16 12 -24 26
-14 26 1 0 17 -5 35 -11z m-1324 -54 c0 -36 -29 -47 -38 -14 -4 14 -11 20 -21
16 -25 -10 -19 9 7 21 35 17 52 10 52 -23z m1315 -55 c0 -13 -6 -13 -41 5 -16
9 -27 20 -24 25 7 12 65 -16 65 -30z m-1272 -15 c24 -37 31 -68 11 -48 -9 9
-17 8 -34 -3 -15 -10 -25 -11 -29 -5 -4 5 3 15 14 21 26 14 28 56 3 45 -36
-15 -53 -17 -53 -7 0 8 38 28 60 31 3 0 15 -15 28 -34z m1225 9 c3 -4 1 -16
-4 -27 -8 -15 -8 -22 2 -28 26 -16 0 -20 -30 -5 -28 15 -29 19 -19 41 10 23
37 33 51 19z m-1168 -94 c7 -12 -22 -70 -36 -70 -5 0 -9 7 -7 16 2 9 -6 21
-17 28 -11 6 -22 12 -25 14 -2 2 2 7 10 12 20 13 67 13 75 0z m1135 -32 c0 -4
-9 -8 -19 -8 -20 0 -35 -25 -25 -41 3 -5 1 -9 -4 -9 -15 0 -41 67 -30 78 11
11 78 -6 78 -20z m-1096 -42 c-6 -28 -5 -29 10 -17 25 21 31 5 8 -20 -28 -29
-55 -19 -42 16 5 14 6 25 1 25 -5 0 -12 -7 -15 -16 -3 -8 -10 -12 -16 -9 -14
9 32 63 48 57 9 -3 11 -14 6 -36z m1006 2 c26 -28 26 -41 -1 -33 -18 6 -20 4
-14 -14 8 -26 -2 -27 -29 -2 -21 18 -21 18 -41 -1 l-20 -20 25 7 c20 6 23 5
13 -6 -20 -20 -15 -31 7 -19 25 13 26 2 3 -16 -25 -19 -28 -18 -48 13 l-18 26
49 43 c27 24 50 43 51 44 1 0 11 -10 23 -22z m-910 -53 c0 -14 -44 -64 -51
-59 -10 6 30 64 43 64 4 0 8 -2 8 -5z m60 -40 c18 -22 4 -31 -16 -10 -17 16
-18 16 -31 0 -13 -18 -9 -35 7 -35 5 0 7 7 3 16 -5 14 -3 15 15 5 38 -20 21
-48 -23 -37 -28 7 -42 41 -25 61 16 19 54 19 70 0z m736 -16 l16 -32 -27 7
c-22 6 -26 4 -22 -8 12 -31 -13 -26 -29 5 -15 31 -15 33 2 46 28 20 42 16 60
-18z m-688 -27 c4 -23 18 -30 24 -10 2 6 9 9 16 7 8 -3 6 -14 -8 -37 -23 -37
-40 -34 -40 6 -1 26 -1 26 -15 8 -21 -27 -27 -16 -13 22 14 36 31 37 36 4z
m615 -12 c14 -27 7 -54 -8 -30 -12 20 -33 11 -27 -12 7 -30 -13 -15 -32 22
-13 27 -13 31 2 40 30 17 50 11 65 -20z m-508 -27 c13 -58 13 -63 5 -63 -4 0
-13 7 -21 16 -8 10 -21 13 -36 9 -30 -7 -29 3 4 37 33 35 41 35 48 1z m420 0
c31 -36 31 -45 -1 -37 -18 5 -29 1 -39 -12 -7 -11 -17 -16 -21 -12 -4 4 -13 3
-20 -3 -8 -6 -25 -8 -39 -5 -20 5 -25 13 -25 36 0 23 5 31 24 36 27 6 50 -2
41 -16 -3 -4 -14 -6 -25 -3 -15 4 -20 0 -20 -16 0 -18 5 -21 34 -18 31 2 35 5
40 40 7 44 19 46 51 10z m-326 -18 c3 -17 1 -17 -12 -6 -18 15 -37 7 -37 -15
0 -10 7 -14 20 -12 10 2 19 -1 20 -7 0 -5 -12 -10 -27 -10 -23 0 -29 5 -31 29
-2 16 2 33 10 37 21 14 52 6 57 -16z m37 -12 c-2 -16 -5 -34 -5 -40 -1 -7 -5
-13 -11 -13 -11 0 -13 39 -4 64 10 27 25 18 20 -11z m84 12 c7 -9 10 -25 6
-40 -6 -22 -11 -26 -39 -23 -25 2 -33 8 -35 27 -6 41 43 66 68 36z"/>
<path d="M733 1654 c-3 -8 2 -23 11 -32 14 -15 18 -15 31 -1 9 9 13 23 9 32
-8 21 -43 22 -51 1z"/>
<path d="M630 1630 c0 -5 4 -10 9 -10 6 0 13 5 16 10 3 6 -1 10 -9 10 -9 0
-16 -4 -16 -10z"/>
<path d="M466 1551 c-10 -16 5 -41 24 -41 23 0 32 13 24 34 -7 17 -39 22 -48
7z"/>
<path d="M766 1465 c-20 -20 -5 -55 23 -55 28 0 47 28 34 48 -14 23 -38 26
-57 7z m42 -23 c2 -7 -3 -12 -12 -12 -9 0 -16 7 -16 16 0 17 22 14 28 -4z"/>
<path d="M846 1472 c-12 -20 2 -47 25 -47 19 0 24 6 26 28 1 22 -2 27 -22 27
-13 0 -26 -4 -29 -8z"/>
<path d="M697 1454 c-3 -3 -1 -19 5 -35 7 -20 15 -28 25 -25 8 3 19 6 24 6 5
0 9 5 9 11 0 6 -7 8 -15 5 -11 -4 -19 3 -25 19 -10 26 -13 29 -23 19z"/>
<path d="M645 1426 c-17 -12 -18 -17 -5 -42 11 -24 14 -26 18 -11 2 12 9 16
23 12 19 -6 26 5 12 19 -5 4 -8 13 -8 19 0 17 -19 18 -40 3z"/>
<path d="M576 1393 c-3 -3 -6 -17 -6 -30 0 -30 -35 -70 -45 -52 -5 7 -1 17 8
24 22 16 10 27 -14 14 -24 -13 -24 -45 0 -58 15 -8 25 -3 57 28 21 22 44 37
51 34 7 -3 13 -1 13 4 0 12 -56 44 -64 36z"/>
<path d="M445 1270 c-3 -5 -1 -10 4 -10 6 0 11 -5 11 -11 0 -6 -8 -8 -19 -4
-11 3 -22 2 -25 -3 -7 -12 42 -58 51 -47 5 4 2 10 -4 12 -7 3 -13 9 -13 15 0
6 6 8 14 5 28 -11 36 17 11 36 -15 10 -26 13 -30 7z"/>
<path d="M1115 1108 c-99 -85 -191 -163 -204 -173 -13 -11 -60 -51 -105 -89
-45 -39 -89 -77 -100 -85 -17 -15 -25 -9 -125 98 l-107 114 -84 -79 c-47 -43
-86 -81 -88 -84 -2 -5 84 -99 349 -384 l27 -29 374 323 c205 178 379 329 387
336 12 11 8 21 -27 66 -23 29 -58 73 -79 96 l-38 44 -180 -154z"/>
<path d="M385 1180 c-3 -5 1 -20 9 -32 14 -22 13 -24 -10 -35 -23 -11 -24 -10
-12 4 11 14 11 15 -2 11 -15 -5 -28 -58 -14 -58 4 0 17 8 28 18 20 16 20 16 7
-1 -8 -9 -11 -20 -8 -23 10 -10 27 6 27 26 0 10 4 21 10 25 5 3 7 12 4 19 -3
7 2 20 10 29 9 9 16 18 16 21 0 10 -59 7 -65 -4z"/>
<path d="M865 1019 c-9 -14 -2 -20 14 -10 8 6 9 11 3 15 -6 3 -14 1 -17 -5z"/>
<path d="M1502 1297 c-9 -10 -9 -18 1 -31 17 -23 49 -11 45 18 -4 25 -30 32
-46 13z"/>
<path d="M1585 830 c-8 -14 3 -30 21 -30 8 0 14 9 14 20 0 21 -24 28 -35 10z"/>
<path d="M231 634 c0 -11 3 -14 6 -6 3 7 2 16 -1 19 -3 4 -6 -2 -5 -13z"/>
<path d="M1360 389 c0 -5 5 -7 10 -4 6 3 10 8 10 11 0 2 -4 4 -10 4 -5 0 -10
-5 -10 -11z"/>
<path d="M1235 300 c-3 -5 -2 -10 4 -10 5 0 13 5 16 10 3 6 2 10 -4 10 -5 0
-13 -4 -16 -10z"/>
<path d="M1160 260 c0 -5 7 -7 15 -4 8 4 15 8 15 10 0 2 -7 4 -15 4 -8 0 -15
-4 -15 -10z"/>
<path d="M877 203 c-14 -13 -7 -33 11 -33 24 0 32 8 25 26 -5 15 -25 19 -36 7z"/>
</g>
</svg>
